<svg width="50" height="50" viewBox="0 0 50 50" fill="none" xmlns="http://www.w3.org/2000/svg">
<path d="M43.143 24.6158L40.8614 21.2631C40.5591 20.7874 40.1507 20.3882 39.6683 20.0968C39.1859 19.8054 38.6426 19.6297 38.0809 19.5834C38.4447 19.153 38.7039 18.6442 38.8383 18.0969C38.9727 17.5496 38.9786 16.9786 38.8555 16.4287L38.1016 12.4443C38.0758 12.3091 38.0098 12.1848 37.9122 12.0876C37.8147 11.9905 37.6901 11.925 37.5547 11.8998L33.5703 11.1459C33.0204 11.0226 32.4494 11.0283 31.902 11.1627C31.3547 11.2971 30.8459 11.5565 30.4157 11.9205C30.3696 11.3587 30.1939 10.8152 29.9025 10.3327C29.6111 9.85024 29.2118 9.44185 28.736 9.13962L25.3844 6.85837C25.2711 6.78109 25.1372 6.73975 25 6.73975C24.8629 6.73975 24.7289 6.78109 24.6157 6.85837L21.2629 9.1408C20.7873 9.4431 20.3881 9.85145 20.0967 10.3338C19.8053 10.8162 19.6295 11.3596 19.5832 11.9213C19.1529 11.5573 18.6442 11.2979 18.0968 11.1635C17.5495 11.0291 16.9785 11.0234 16.4285 11.1467L12.4442 11.9006C12.3092 11.9262 12.1851 11.9918 12.088 12.0889C11.9909 12.186 11.9252 12.3101 11.8996 12.4451L11.1457 16.4295C11.0227 16.9794 11.0285 17.5503 11.1629 18.0975C11.2973 18.6447 11.5566 19.1534 11.9203 19.5838C11.3586 19.63 10.8152 19.8057 10.3327 20.0971C9.85024 20.3885 9.44182 20.7877 9.13949 21.2635L6.85824 24.6154C6.78074 24.7286 6.73928 24.8626 6.73928 24.9998C6.73928 25.137 6.78074 25.271 6.85824 25.3842L9.13949 28.7369C9.44189 29.2125 9.85032 29.6117 10.3328 29.9031C10.8152 30.1945 11.3586 30.3703 11.9203 30.4166C11.5566 30.847 11.2973 31.3557 11.1629 31.903C11.0285 32.4503 11.0227 33.0213 11.1457 33.5713L11.8996 37.5556C11.9252 37.6906 11.9909 37.8147 12.088 37.9118C12.1851 38.0089 12.3092 38.0746 12.4442 38.1002L16.4285 38.8541C16.6974 38.9053 16.9705 38.9315 17.2442 38.9322C18.1014 38.948 18.9342 38.6467 19.5828 38.0861C19.6296 38.6473 19.8055 39.19 20.0969 39.6718C20.3883 40.1536 20.7873 40.5615 21.2625 40.8635L24.6145 43.1447C24.7278 43.222 24.8617 43.2634 24.9989 43.2634C25.136 43.2634 25.27 43.222 25.3832 43.1447L28.736 40.8631C29.2113 40.5612 29.6102 40.1534 29.9016 39.6717C30.193 39.1899 30.369 38.6472 30.4157 38.0861C31.064 38.6478 31.897 38.95 32.7547 38.9349C33.0286 38.9342 33.3017 38.9081 33.5707 38.8568L37.5551 38.1029C37.6905 38.0777 37.8151 38.0122 37.9126 37.9151C38.0102 37.8179 38.0762 37.6936 38.102 37.5584L38.8559 33.574C38.979 33.0241 38.9731 32.4532 38.8387 31.906C38.7043 31.3587 38.4451 30.85 38.0813 30.4197C38.643 30.3735 39.1865 30.1978 39.6689 29.9063C40.1514 29.6149 40.5598 29.2157 40.8621 28.74L43.1434 25.3881C43.2216 25.2745 43.2634 25.1398 43.2634 25.0019C43.2633 24.864 43.2213 24.7293 43.143 24.6158ZM33.3203 12.4885L36.8465 13.1556L37.5118 16.6799C37.6015 17.0424 37.6007 17.4215 37.5096 17.7837C37.4185 18.146 37.2397 18.4803 36.9891 18.7572L36.1774 19.5705H30.4297V13.8228L31.241 13.0111C31.5181 12.76 31.8527 12.5809 32.2153 12.4898C32.578 12.3986 32.9575 12.3982 33.3203 12.4885ZM24.0332 31.7115L20.9375 34.8095V30.4299H22.752L24.0332 31.7115ZM25.9668 18.2888L29.0625 15.1908V19.5705H27.2481L25.9668 18.2888ZM30.7442 25.0002L29.2629 26.4818C29.1347 26.6099 29.0626 26.7837 29.0625 26.965V29.0627H26.9649C26.7836 29.0628 26.6098 29.1348 26.4817 29.2631L25 30.7443L23.5184 29.2631C23.3903 29.1348 23.2165 29.0628 23.0352 29.0627H20.9375V26.965C20.9374 26.7837 20.8654 26.6099 20.7371 26.4818L19.2578 25.0002L20.7391 23.5185C20.8666 23.3901 20.938 23.2163 20.9375 23.0353V20.9377H23.0352C23.2165 20.9376 23.3903 20.8655 23.5184 20.7373L25 19.258L26.4817 20.7392C26.6098 20.8675 26.7836 20.9395 26.9649 20.9396H29.0625V23.0373C29.0626 23.2185 29.1347 23.3924 29.2629 23.5205L30.7442 25.0002ZM22.752 19.5705H20.9375V15.1908L24.0332 18.2888L22.752 19.5705ZM19.5703 22.7521L18.2887 24.0334L15.1907 20.9377H19.5703V22.7521ZM18.2887 25.967L19.5703 27.2482V29.0627H15.1907L18.2887 25.967ZM27.2481 30.4299H29.0625V34.8095L25.9668 31.7115L27.2481 30.4299ZM30.4297 27.2482L31.7114 25.967L34.8094 29.0627H30.4297V27.2482ZM31.7114 24.0334L30.4297 22.7521V20.9377H34.8094L31.7114 24.0334ZM22.0313 10.2681L25 8.249L27.9661 10.2677C28.2851 10.4607 28.5518 10.729 28.743 11.0491C28.9342 11.3692 29.0439 11.7313 29.0625 12.1037V13.2549L25 17.322L20.9375 13.2568V12.1056C20.9557 11.7333 21.0649 11.371 21.2556 11.0507C21.4462 10.7303 21.7126 10.4616 22.0313 10.2681ZM12.4883 16.6818L13.1555 13.1556L16.6797 12.4885C17.0423 12.3984 17.4214 12.3989 17.7837 12.4901C18.146 12.5812 18.4803 12.7602 18.7571 13.0111L19.5703 13.8228V19.5705H13.8227L13.011 18.7588C12.7604 18.4819 12.5816 18.1477 12.4905 17.7855C12.3994 17.4233 12.3986 17.0443 12.4883 16.6818ZM10.268 27.9689L8.24886 25.0002L10.2676 22.0342C10.4606 21.7152 10.7289 21.4484 11.049 21.2572C11.3691 21.066 11.7312 20.9563 12.1035 20.9377H13.2547L17.3219 25.0002L13.2567 29.0627H12.1055C11.7331 29.0445 11.3709 28.9353 11.0505 28.7447C10.7302 28.554 10.4615 28.2876 10.268 27.9689ZM16.6817 37.5119L13.1555 36.8447L12.4883 33.3205C12.3986 32.9579 12.3993 32.5788 12.4905 32.2166C12.5816 31.8544 12.7603 31.5201 13.011 31.2431L13.8227 30.4299H19.5703V36.1775L18.7586 36.9892C18.4819 37.24 18.1476 37.4189 17.7854 37.51C17.4232 37.6011 17.0442 37.6018 16.6817 37.5119ZM27.9688 39.7322L25 41.7513L22.034 39.7326C21.715 39.5396 21.4482 39.2713 21.2571 38.9512C21.0659 38.6311 20.9562 38.269 20.9375 37.8967V36.7435L25 32.6783L29.0625 36.7435V37.8947C29.0444 38.2671 28.9352 38.6293 28.7445 38.9497C28.5538 39.27 28.2875 39.5387 27.9688 39.7322ZM37.5118 33.3205L36.8446 36.8463L33.3203 37.5119C32.9577 37.6019 32.5785 37.6012 32.2162 37.5101C31.8539 37.419 31.5195 37.2401 31.2426 36.9892L30.4297 36.1775V30.4299H36.1774L36.9891 31.2416C37.24 31.5187 37.4189 31.8532 37.51 32.2158C37.6012 32.5783 37.6018 32.9577 37.5118 33.3205ZM39.7325 27.9689C39.5395 28.2879 39.2712 28.5547 38.9511 28.7459C38.631 28.937 38.2689 29.0468 37.8965 29.0654H36.7434L32.6782 25.0002L36.7434 20.9377H37.8946C38.2667 20.9561 38.6286 21.0654 38.9487 21.256C39.2687 21.4467 39.5372 21.7129 39.7305 22.0314L41.7496 25.0002L39.7325 27.9689Z" fill="#414141"/>
</svg>
