<svg width="40" height="40" viewBox="0 0 40 40" fill="none" xmlns="http://www.w3.org/2000/svg">
<path d="M20 15.8666C19.1825 15.8666 18.3834 16.109 17.7037 16.5632C17.0239 17.0174 16.4942 17.6629 16.1813 18.4182C15.8685 19.1734 15.7866 20.0045 15.9461 20.8063C16.1056 21.6081 16.4992 22.3446 17.0773 22.9226C17.6554 23.5007 18.3918 23.8943 19.1936 24.0538C19.9954 24.2133 20.8265 24.1315 21.5818 23.8186C22.337 23.5058 22.9826 22.976 23.4368 22.2963C23.8909 21.6166 24.1333 20.8174 24.1333 19.9999C24.1333 19.4571 24.0264 18.9196 23.8187 18.4182C23.611 17.9167 23.3065 17.461 22.9227 17.0772C22.5389 16.6934 22.0832 16.3889 21.5818 16.1812C21.0803 15.9735 20.5428 15.8666 20 15.8666ZM36.55 11.7833C36.5412 10.4962 36.3042 9.22087 35.85 8.01659C35.5155 7.13535 34.9979 6.33508 34.3314 5.66856C33.6649 5.00205 32.8646 4.48445 31.9833 4.14992C30.7791 3.69569 29.5037 3.45869 28.2167 3.44992C26.0667 3.33325 25.4333 3.33325 20 3.33325C14.5667 3.33325 13.9333 3.33325 11.7833 3.44992C10.4963 3.45869 9.22096 3.69569 8.01668 4.14992C7.13544 4.48445 6.33517 5.00205 5.66865 5.66856C5.00214 6.33508 4.48454 7.13535 4.15001 8.01659C3.69578 9.22087 3.45878 10.4962 3.45001 11.7833C3.33334 13.9333 3.33334 14.5666 3.33334 19.9999C3.33334 25.4333 3.33334 26.0666 3.45001 28.2166C3.46795 29.5082 3.70463 30.7874 4.15001 31.9999C4.48306 32.8771 5.00022 33.6728 5.66668 34.3333C6.33033 35.0038 7.13233 35.5214 8.01668 35.8499C9.22096 36.3041 10.4963 36.5412 11.7833 36.5499C13.9333 36.6666 14.5667 36.6666 20 36.6666C25.4333 36.6666 26.0667 36.6666 28.2167 36.5499C29.5037 36.5412 30.7791 36.3041 31.9833 35.8499C32.8677 35.5214 33.6697 35.0038 34.3333 34.3333C34.9998 33.6728 35.517 32.8771 35.85 31.9999C36.3038 30.7897 36.5408 29.509 36.55 28.2166C36.6667 26.0666 36.6667 25.4333 36.6667 19.9999C36.6667 14.5666 36.6667 13.9333 36.55 11.7833ZM32.3167 25.1166C32.2632 26.1451 32.0437 27.1582 31.6667 28.1166C31.3431 28.9161 30.8621 29.6423 30.2523 30.2522C29.6424 30.862 28.9162 31.343 28.1167 31.6666C27.1492 32.0226 26.1305 32.2196 25.1 32.2499H14.9C13.8696 32.2196 12.8508 32.0226 11.8833 31.6666C11.0568 31.3595 10.3105 30.8695 9.70001 30.2333C9.09612 29.6353 8.62975 28.913 8.33334 28.1166C7.97594 27.1501 7.78435 26.1302 7.76668 25.0999V19.9999V14.8999C7.78435 13.8696 7.97594 12.8497 8.33334 11.8833C8.64048 11.0568 9.13047 10.3104 9.76668 9.69992C10.3672 9.09929 11.0888 8.63341 11.8833 8.33325C12.8508 7.97726 13.8696 7.78027 14.9 7.74992H25.1C26.1305 7.78027 27.1492 7.97726 28.1167 8.33325C28.9432 8.64039 29.6896 9.13038 30.3 9.76659C30.9039 10.3645 31.3703 11.0868 31.6667 11.8833C32.0227 12.8507 32.2197 13.8695 32.25 14.8999V19.9999C32.25 23.4333 32.3667 23.7833 32.3167 25.0999V25.1166ZM29.65 12.7166C29.4516 12.1782 29.1387 11.6893 28.733 11.2836C28.3273 10.8779 27.8384 10.565 27.3 10.3666C26.5608 10.1104 25.7823 9.98624 25 9.99992H15C14.2138 10.0076 13.4351 10.1543 12.7 10.4333C12.1699 10.6227 11.6862 10.9228 11.281 11.3136C10.8758 11.7044 10.5584 12.177 10.35 12.6999C10.108 13.4422 9.98973 14.2192 10 14.9999V24.9999C10.0165 25.7852 10.163 26.5624 10.4333 27.2999C10.6318 27.8383 10.9447 28.3272 11.3504 28.7329C11.7561 29.1386 12.245 29.4515 12.7833 29.6499C13.4945 29.9114 14.2428 30.0577 15 30.0833H25C25.7862 30.0756 26.5649 29.9289 27.3 29.6499C27.8384 29.4515 28.3273 29.1386 28.733 28.7329C29.1387 28.3272 29.4516 27.8383 29.65 27.2999C29.929 26.5648 30.0757 25.7861 30.0833 24.9999V19.9999V14.9999C30.0838 14.2129 29.9368 13.4328 29.65 12.6999V12.7166ZM20 26.3666C19.1647 26.3666 18.3376 26.2018 17.5661 25.8816C16.7946 25.5615 16.0939 25.0922 15.504 24.5008C14.9141 23.9094 14.4467 23.2074 14.1286 22.4351C13.8104 21.6627 13.6478 20.8352 13.65 19.9999C13.65 18.74 14.0238 17.5084 14.7242 16.4611C15.4245 15.4137 16.4198 14.5977 17.5841 14.1163C18.7485 13.6349 20.0294 13.5098 21.2649 13.7568C22.5004 14.0038 23.6348 14.6119 24.5245 15.5039C25.4142 16.396 26.0193 17.532 26.263 18.7681C26.5068 20.0042 26.3783 21.2848 25.8939 22.4479C25.4095 23.611 24.5909 24.6042 23.5417 25.3017C22.4925 25.9993 21.2599 26.3699 20 26.3666ZM26.6667 14.8833C26.2982 14.8443 25.9573 14.6703 25.7095 14.3949C25.4617 14.1195 25.3246 13.7621 25.3246 13.3916C25.3246 13.0211 25.4617 12.6637 25.7095 12.3883C25.9573 12.1129 26.2982 11.9389 26.6667 11.8999C27.0351 11.9389 27.3761 12.1129 27.6239 12.3883C27.8717 12.6637 28.0088 13.0211 28.0088 13.3916C28.0088 13.7621 27.8717 14.1195 27.6239 14.3949C27.3761 14.6703 27.0351 14.8443 26.6667 14.8833Z" fill="white"/>
</svg>
