<svg width="17" height="18" viewBox="0 0 17 18" fill="none" xmlns="http://www.w3.org/2000/svg">
<path d="M7.70834 6.49984H9.29167C9.50164 6.49984 9.703 6.58764 9.85147 6.74392C9.99993 6.9002 10.0833 7.11216 10.0833 7.33317C10.0833 7.55418 10.1667 7.76615 10.3152 7.92243C10.4637 8.07871 10.665 8.1665 10.875 8.1665C11.085 8.1665 11.2863 8.07871 11.4348 7.92243C11.5833 7.76615 11.6667 7.55418 11.6667 7.33317C11.6667 6.67013 11.4165 6.03425 10.9711 5.5654C10.5257 5.09656 9.92156 4.83317 9.29167 4.83317H7.70834C7.07845 4.83317 6.47436 5.09656 6.02896 5.5654C5.58356 6.03425 5.33334 6.67013 5.33334 7.33317V10.6665C5.33334 11.3295 5.58356 11.9654 6.02896 12.4343C6.47436 12.9031 7.07845 13.1665 7.70834 13.1665H9.29167C9.92156 13.1665 10.5257 12.9031 10.9711 12.4343C11.4165 11.9654 11.6667 11.3295 11.6667 10.6665C11.6667 10.4455 11.5833 10.2335 11.4348 10.0772C11.2863 9.92097 11.085 9.83317 10.875 9.83317C10.665 9.83317 10.4637 9.92097 10.3152 10.0772C10.1667 10.2335 10.0833 10.4455 10.0833 10.6665C10.0833 10.8875 9.99993 11.0995 9.85147 11.2558C9.703 11.412 9.50164 11.4998 9.29167 11.4998H7.70834C7.49838 11.4998 7.29701 11.412 7.14855 11.2558C7.00008 11.0995 6.91667 10.8875 6.91667 10.6665V7.33317C6.91667 7.11216 7.00008 6.9002 7.14855 6.74392C7.29701 6.58764 7.49838 6.49984 7.70834 6.49984ZM8.50001 0.666504C6.93424 0.666504 5.40363 1.15525 4.10174 2.07092C2.79985 2.9866 1.78515 4.28809 1.18596 5.81081C0.586766 7.33353 0.42999 9.00908 0.735456 10.6256C1.04092 12.2421 1.79491 13.727 2.90208 14.8924C4.00924 16.0578 5.41986 16.8515 6.95554 17.173C8.49122 17.4946 10.083 17.3296 11.5296 16.6988C12.9762 16.0681 14.2126 15 15.0825 13.6296C15.9524 12.2592 16.4167 10.648 16.4167 8.99984C16.4167 7.90549 16.2119 6.82186 15.8141 5.81081C15.4162 4.79976 14.8331 3.8811 14.0979 3.10728C13.3628 2.33346 12.4901 1.71963 11.5296 1.30084C10.5691 0.882052 9.53964 0.666504 8.50001 0.666504ZM8.50001 15.6665C7.24739 15.6665 6.02291 15.2755 4.98139 14.543C3.93988 13.8104 3.12812 12.7692 2.64877 11.5511C2.16941 10.3329 2.04399 8.99244 2.28837 7.69924C2.53274 6.40603 3.13593 5.21814 4.02166 4.28579C4.9074 3.35344 6.03589 2.7185 7.26443 2.46127C8.49298 2.20403 9.7664 2.33606 10.9237 2.84064C12.0809 3.34522 13.0701 4.19971 13.766 5.29604C14.4619 6.39236 14.8333 7.6813 14.8333 8.99984C14.8333 10.7679 14.1661 12.4636 12.9783 13.7139C11.7906 14.9641 10.1797 15.6665 8.50001 15.6665Z" fill="white"/>
</svg>
