<svg width="30" height="30" viewBox="0 0 30 30" fill="none" xmlns="http://www.w3.org/2000/svg">
<path d="M26.1251 2.5H3.87509C3.51042 2.5 3.16068 2.64487 2.90282 2.90273C2.64496 3.16059 2.50009 3.51033 2.50009 3.875V26.125C2.50009 26.4897 2.64496 26.8394 2.90282 27.0973C3.16068 27.3551 3.51042 27.5 3.87509 27.5H15.8501V17.8125H12.6001V14.0625H15.8501V11.25C15.7828 10.5897 15.8607 9.92266 16.0785 9.29567C16.2963 8.66869 16.6485 8.09693 17.1107 7.62051C17.5728 7.1441 18.1336 6.77455 18.7536 6.5378C19.3737 6.30104 20.038 6.20282 20.7001 6.25C21.673 6.24401 22.6454 6.2941 23.6126 6.4V9.775H21.6251C20.0501 9.775 19.7501 10.525 19.7501 11.6125V14.025H23.5001L23.0126 17.775H19.7501V27.5H26.1251C26.3057 27.5 26.4845 27.4644 26.6513 27.3953C26.8181 27.3262 26.9697 27.225 27.0974 27.0973C27.225 26.9696 27.3263 26.818 27.3954 26.6512C27.4645 26.4844 27.5001 26.3056 27.5001 26.125V3.875C27.5001 3.69443 27.4645 3.51563 27.3954 3.34881C27.3263 3.18199 27.225 3.03041 27.0974 2.90273C26.9697 2.77505 26.8181 2.67377 26.6513 2.60467C26.4845 2.53557 26.3057 2.5 26.1251 2.5Z" fill="#939393"/>
</svg>
