<svg width="30" height="30" viewBox="0 0 30 30" fill="none" xmlns="http://www.w3.org/2000/svg">
<path d="M27.5001 7.25002C26.5605 7.65764 25.5669 7.9271 24.5501 8.05002C25.6228 7.40917 26.4267 6.401 26.8126 5.21252C25.8045 5.8126 24.701 6.23539 23.5501 6.46252C22.7808 5.62823 21.7563 5.07289 20.6374 4.88358C19.5184 4.69428 18.3683 4.88172 17.3673 5.4165C16.3664 5.95129 15.5713 6.80318 15.1066 7.83856C14.642 8.87394 14.5342 10.0343 14.8001 11.1375C12.7619 11.0344 10.7681 10.5037 8.94841 9.57984C7.12868 8.65598 5.52365 7.35963 4.23759 5.77502C3.78651 6.56273 3.54949 7.4548 3.55009 8.36252C3.54849 9.2055 3.75536 10.0358 4.15229 10.7795C4.54921 11.5232 5.12386 12.1572 5.82509 12.625C5.01006 12.6028 4.21245 12.3841 3.50009 11.9875V12.05C3.5062 13.2311 3.92008 14.3739 4.67174 15.285C5.42339 16.1961 6.46666 16.8196 7.62509 17.05C7.17916 17.1857 6.71619 17.2573 6.25009 17.2625C5.92745 17.2587 5.60562 17.2295 5.28759 17.175C5.61748 18.191 6.25587 19.0789 7.11394 19.7152C7.972 20.3515 9.00706 20.7045 10.0751 20.725C8.2716 22.1441 6.04495 22.9186 3.75009 22.925C3.33226 22.9264 2.91476 22.9013 2.50009 22.85C4.84313 24.3628 7.57361 25.1659 10.3626 25.1625C12.2872 25.1825 14.1965 24.8188 15.979 24.0926C17.7615 23.3664 19.3814 22.2924 20.7441 20.9331C22.1068 19.5739 23.185 17.9568 23.9158 16.1762C24.6465 14.3955 25.0151 12.4872 25.0001 10.5625V9.90002C25.981 9.16853 26.8269 8.2718 27.5001 7.25002Z" fill="#939393"/>
</svg>
