<svg width="25" height="25" viewBox="0 0 25 25" fill="none" xmlns="http://www.w3.org/2000/svg">
<path d="M20.3125 22.917C20.7269 22.917 21.1243 22.7524 21.4174 22.4593C21.7104 22.1663 21.875 21.7689 21.875 21.3545C21.875 20.9401 21.7104 20.5427 21.4174 20.2496C21.1243 19.9566 20.7269 19.792 20.3125 19.792C19.8981 19.792 19.5007 19.9566 19.2076 20.2496C18.9146 20.5427 18.75 20.9401 18.75 21.3545C18.75 21.7689 18.9146 22.1663 19.2076 22.4593C19.5007 22.7524 19.8981 22.917 20.3125 22.917Z" fill="#443937" stroke="#443937" stroke-linecap="round" stroke-linejoin="round"/>
<path d="M9.896 22.917C10.3104 22.917 10.7078 22.7524 11.0009 22.4593C11.2939 22.1663 11.4585 21.7689 11.4585 21.3545C11.4585 20.9401 11.2939 20.5427 11.0009 20.2496C10.7078 19.9566 10.3104 19.792 9.896 19.792C9.4816 19.792 9.08417 19.9566 8.79114 20.2496C8.49812 20.5427 8.3335 20.9401 8.3335 21.3545C8.3335 21.7689 8.49812 22.1663 8.79114 22.4593C9.08417 22.7524 9.4816 22.917 9.896 22.917Z" fill="#443937" stroke="#443937" stroke-linecap="round" stroke-linejoin="round"/>
<path d="M5.20837 4.16683C5.03442 3.47204 4.16671 2.0835 2.08337 2.0835M5.20837 4.16683H22.9167L20.8334 15.6252H7.29171L5.20837 4.16683Z" stroke="#443937" stroke-linecap="round" stroke-linejoin="round"/>
<path d="M20.8334 15.625H5.448C3.58966 15.625 2.60425 16.4385 2.60425 17.7083C2.60425 18.9781 3.58966 19.7917 5.448 19.7917H20.3126" stroke="#443937" stroke-linecap="round" stroke-linejoin="round"/>
</svg>
