<svg width="25" height="25" viewBox="0 0 25 25" fill="none" xmlns="http://www.w3.org/2000/svg">
<path d="M22.9167 9.23125C22.9203 10.8341 22.3027 12.376 21.1937 13.5333C18.651 16.1698 16.1844 18.9188 13.5479 21.4583C12.9427 22.0313 11.9833 22.0104 11.4052 21.4115L3.80624 13.5344C1.50937 11.1531 1.50937 7.30938 3.80624 4.92917C4.3491 4.35937 5.00201 3.90575 5.7254 3.59581C6.44879 3.28586 7.22758 3.12604 8.01458 3.12604C8.80157 3.12604 9.58037 3.28586 10.3038 3.59581C11.0271 3.90575 11.6801 4.35937 12.2229 4.92917L12.5 5.21458L12.776 4.92917C13.32 4.36072 13.9731 3.90793 14.6962 3.59792C15.4193 3.28791 16.1976 3.12706 16.9844 3.125C18.5677 3.125 20.0812 3.775 21.1927 4.92917C22.3021 6.0863 22.92 7.62824 22.9167 9.23125V9.23125Z" stroke="#443937" stroke-linejoin="round"/>
</svg>
