<svg width="25" height="25" viewBox="0 0 25 25" fill="none" xmlns="http://www.w3.org/2000/svg">
<path d="M12.5 16.6668C13.605 16.6668 14.6649 16.2278 15.4463 15.4464C16.2277 14.665 16.6666 13.6052 16.6666 12.5002C16.6666 11.3951 16.2277 10.3353 15.4463 9.55388C14.6649 8.77248 13.605 8.3335 12.5 8.3335C11.3949 8.3335 10.3351 8.77248 9.5537 9.55388C8.7723 10.3353 8.33331 11.3951 8.33331 12.5002C8.33331 13.6052 8.7723 14.665 9.5537 15.4464C10.3351 16.2278 11.3949 16.6668 12.5 16.6668V16.6668Z" stroke="black" stroke-linecap="round" stroke-linejoin="round"/>
<path d="M3.125 16.6667V8.33333C3.125 6.952 3.67373 5.62724 4.65049 4.65049C5.62724 3.67373 6.952 3.125 8.33333 3.125H16.6667C18.048 3.125 19.3728 3.67373 20.3495 4.65049C21.3263 5.62724 21.875 6.952 21.875 8.33333V16.6667C21.875 18.048 21.3263 19.3728 20.3495 20.3495C19.3728 21.3263 18.048 21.875 16.6667 21.875H8.33333C6.952 21.875 5.62724 21.3263 4.65049 20.3495C3.67373 19.3728 3.125 18.048 3.125 16.6667Z" stroke="black"/>
<path d="M18.2292 6.78102L18.2392 6.77002" stroke="black" stroke-linecap="round" stroke-linejoin="round"/>
</svg>
