<svg width="127" height="19" viewBox="0 0 127 19" fill="none" xmlns="http://www.w3.org/2000/svg">
<path d="M10.08 18.216L4.872 6.50399L4.248 12.528C4.152 13.584 4.136 14.384 4.2 14.928C4.264 15.472 4.416 15.848 4.656 16.056C4.912 16.264 5.264 16.384 5.712 16.416C5.776 16.656 5.816 16.92 5.832 17.208C5.864 17.496 5.88 17.784 5.88 18.072C5.608 18.04 5.216 18.016 4.704 18C4.208 18 3.728 18 3.264 18C2.944 18 2.592 18 2.208 18C1.84 18.016 1.488 18.024 1.152 18.024C0.816003 18.04 0.560003 18.056 0.384003 18.072C0.384003 17.784 0.400003 17.496 0.432003 17.208C0.464003 16.92 0.512003 16.656 0.576003 16.416C0.976003 16.384 1.312 16.264 1.584 16.056C1.856 15.832 2.064 15.448 2.208 14.904C2.368 14.344 2.496 13.56 2.592 12.552L3.192 5.99999C3.288 4.92799 3.224 4.22399 3 3.88799C2.792 3.53599 2.352 3.35999 1.68 3.35999C1.6 3.10399 1.544 2.84799 1.512 2.59199C1.496 2.31999 1.488 2.02399 1.488 1.70399C1.712 1.71999 2.008 1.73599 2.376 1.75199C2.76 1.75199 3.144 1.75999 3.528 1.77599C3.912 1.77599 4.224 1.77599 4.464 1.77599C4.704 1.77599 5.016 1.77599 5.4 1.77599C5.8 1.75999 6.184 1.75199 6.552 1.75199C6.92 1.73599 7.192 1.71999 7.368 1.70399L12.12 12.816L16.248 1.70399C16.52 1.71999 16.848 1.73599 17.232 1.75199C17.616 1.75199 17.992 1.75999 18.36 1.77599C18.744 1.77599 19.056 1.77599 19.296 1.77599C19.552 1.77599 19.856 1.77599 20.208 1.77599C20.576 1.75999 20.936 1.75199 21.288 1.75199C21.656 1.73599 21.952 1.71999 22.176 1.70399C22.176 1.99199 22.16 2.28799 22.128 2.59199C22.112 2.87999 22.072 3.13599 22.008 3.35999C21.32 3.35999 20.856 3.55199 20.616 3.93599C20.392 4.30399 20.336 5.00799 20.448 6.04799L21.168 13.2C21.264 14.112 21.368 14.792 21.48 15.24C21.608 15.672 21.784 15.96 22.008 16.104C22.248 16.248 22.576 16.344 22.992 16.392C23.056 16.632 23.096 16.896 23.112 17.184C23.128 17.456 23.136 17.752 23.136 18.072C22.976 18.056 22.72 18.04 22.368 18.024C22.016 18.024 21.624 18.016 21.192 18C20.776 18 20.36 18 19.944 18C19.544 18 19.208 18 18.936 18C18.568 18 18.152 18 17.688 18C17.224 18.016 16.784 18.024 16.368 18.024C15.952 18.04 15.64 18.056 15.432 18.072C15.432 17.736 15.448 17.44 15.48 17.184C15.528 16.928 15.576 16.672 15.624 16.416C16.12 16.368 16.48 16.272 16.704 16.128C16.928 15.968 17.056 15.688 17.088 15.288C17.12 14.888 17.096 14.28 17.016 13.464L16.272 6.45599L11.664 18.024C11.472 18.104 11.224 18.152 10.92 18.168C10.616 18.2 10.336 18.216 10.08 18.216Z" fill="black"/>
<path d="M28.6539 18.144C27.4699 18.144 26.5579 17.816 25.9179 17.16C25.2779 16.504 24.9579 15.352 24.9579 13.704V11.184C24.9579 10.464 24.8779 9.95999 24.7179 9.67199C24.5579 9.38399 24.1339 9.21599 23.4459 9.16799C23.4459 8.89599 23.4619 8.62399 23.4939 8.35199C23.5259 8.06399 23.6059 7.80799 23.7339 7.58399C24.7419 7.58399 25.6379 7.50399 26.4219 7.34399C27.2059 7.16799 27.7899 6.98399 28.1739 6.79199C28.3979 6.88799 28.5739 7.04799 28.7019 7.27199C28.8459 7.49599 28.9179 7.80799 28.9179 8.20799V13.104C28.9179 14.176 29.0139 14.92 29.2059 15.336C29.4139 15.736 29.7419 15.936 30.1899 15.936C30.7659 15.936 31.2699 15.632 31.7019 15.024C32.1499 14.416 32.3739 13.48 32.3739 12.216V11.064C32.3739 10.344 32.2699 9.83999 32.0619 9.55199C31.8539 9.26399 31.3819 9.09599 30.6459 9.04799C30.6459 8.77599 30.6619 8.50399 30.6939 8.23199C30.7259 7.94399 30.7979 7.68799 30.9099 7.46399C31.9659 7.46399 32.9099 7.39999 33.7419 7.27199C34.5899 7.14399 35.1979 6.98399 35.5659 6.79199C35.8059 6.88799 35.9899 7.04799 36.1179 7.27199C36.2459 7.49599 36.3099 7.80799 36.3099 8.20799V13.656C36.3099 14.232 36.3419 14.664 36.4059 14.952C36.4699 15.24 36.5979 15.44 36.7899 15.552C36.9979 15.648 37.3019 15.704 37.7019 15.72C37.7499 16.024 37.7499 16.32 37.7019 16.608C37.6699 16.896 37.5899 17.168 37.4619 17.424C36.8059 17.44 36.1339 17.512 35.4459 17.64C34.7739 17.768 34.1419 17.96 33.5499 18.216C33.2459 18.104 33.0299 17.944 32.9019 17.736C32.7739 17.528 32.7099 17.232 32.7099 16.848C32.7099 16.528 32.7579 16.144 32.8539 15.696C32.6459 16.272 32.3579 16.728 31.9899 17.064C31.6539 17.384 31.2059 17.648 30.6459 17.856C30.0859 18.048 29.4219 18.144 28.6539 18.144ZM33.5739 5.68799C32.8539 5.68799 32.3099 5.51199 31.9419 5.15999C31.5899 4.79199 31.4139 4.31999 31.4139 3.74399C31.4139 3.18399 31.6059 2.75199 31.9899 2.44799C32.3739 2.14399 32.8699 1.99199 33.4779 1.99199C34.0699 1.99199 34.5579 2.15999 34.9419 2.49599C35.3419 2.83199 35.5419 3.24799 35.5419 3.74399C35.5419 4.23999 35.3899 4.68799 35.0859 5.08799C34.7979 5.48799 34.2939 5.68799 33.5739 5.68799ZM27.7899 5.68799C27.1659 5.68799 26.6619 5.51999 26.2779 5.18399C25.8939 4.84799 25.7019 4.43999 25.7019 3.95999C25.7019 3.44799 25.8619 2.99199 26.1819 2.59199C26.5019 2.19199 27.0139 1.99199 27.7179 1.99199C28.4539 1.99199 28.9819 2.17599 29.3019 2.54399C29.6379 2.91199 29.8059 3.36799 29.8059 3.91199C29.8059 4.40799 29.6139 4.83199 29.2299 5.18399C28.8459 5.51999 28.3659 5.68799 27.7899 5.68799Z" fill="black"/>
<path d="M47.8991 7.53599C47.8511 8.41599 47.8831 9.27199 47.9951 10.104C47.7551 10.248 47.4431 10.368 47.0591 10.464C46.6911 10.544 46.3151 10.584 45.9311 10.584C45.8511 9.99199 45.6431 9.48799 45.3071 9.07199C44.9711 8.63999 44.4591 8.42399 43.7711 8.42399C43.4511 8.42399 43.1951 8.51199 43.0031 8.68799C42.8271 8.84799 42.7391 9.06399 42.7391 9.33599C42.7391 9.54399 42.7871 9.73599 42.8831 9.91199C42.9951 10.088 43.2271 10.28 43.5791 10.488C43.9311 10.696 44.4911 10.96 45.2591 11.28C46.1711 11.648 46.8911 12 47.4191 12.336C47.9471 12.672 48.3151 13.04 48.5231 13.44C48.7471 13.824 48.8591 14.28 48.8591 14.808C48.8591 15.912 48.3871 16.76 47.4431 17.352C46.5151 17.928 45.2271 18.216 43.5791 18.216C42.5551 18.216 41.7071 18.144 41.0351 18C40.3791 17.872 39.7311 17.672 39.0911 17.4C39.1551 16.936 39.1871 16.424 39.1871 15.864C39.1871 15.288 39.1711 14.808 39.1391 14.424C39.3791 14.28 39.6991 14.168 40.0991 14.088C40.5151 14.008 40.8991 13.968 41.2511 13.968C41.3471 14.816 41.5871 15.448 41.9711 15.864C42.3711 16.28 42.8591 16.488 43.4351 16.488C43.8351 16.488 44.1631 16.4 44.4191 16.224C44.6911 16.048 44.8271 15.792 44.8271 15.456C44.8271 15.104 44.6831 14.808 44.3951 14.568C44.1071 14.312 43.5151 14.008 42.6191 13.656C41.9151 13.384 41.3071 13.096 40.7951 12.792C40.2831 12.488 39.8831 12.112 39.5951 11.664C39.3231 11.216 39.1871 10.64 39.1871 9.93599C39.1871 9.21599 39.3951 8.62399 39.8111 8.15999C40.2271 7.69599 40.7871 7.35199 41.4911 7.12799C42.1951 6.90399 42.9871 6.79199 43.8671 6.79199C44.7631 6.79199 45.5231 6.85599 46.1471 6.98399C46.7711 7.09599 47.3551 7.27999 47.8991 7.53599Z" fill="black"/>
<path d="M50.1932 18.072C50.1932 17.736 50.2012 17.432 50.2172 17.16C50.2492 16.872 50.3052 16.624 50.3852 16.416C51.0252 16.384 51.4492 16.232 51.6572 15.96C51.8652 15.672 51.9692 15.128 51.9692 14.328V4.65599C51.9692 4.17599 51.8492 3.82399 51.6092 3.59999C51.3692 3.35999 50.8972 3.21599 50.1932 3.16799C50.1932 2.89599 50.2092 2.62399 50.2412 2.35199C50.2732 2.06399 50.3532 1.80799 50.4812 1.58399C51.1212 1.58399 51.7532 1.54399 52.3772 1.46399C53.0172 1.38399 53.5772 1.28799 54.0572 1.17599C54.5532 1.04799 54.9212 0.919991 55.1612 0.791992C55.3852 0.887992 55.5692 1.04799 55.7132 1.27199C55.8572 1.49599 55.9292 1.79999 55.9292 2.18399V14.328C55.9292 15.128 56.0332 15.672 56.2412 15.96C56.4492 16.232 56.8572 16.384 57.4652 16.416C57.5292 16.624 57.5692 16.872 57.5852 17.16C57.6172 17.448 57.6332 17.752 57.6332 18.072C57.2972 18.04 56.7772 18.016 56.0732 18C55.3692 18 54.6492 18 53.9132 18C53.1772 18 52.4492 18 51.7292 18C51.0252 18.016 50.5132 18.04 50.1932 18.072Z" fill="black"/>
<path d="M63.7868 18.144C62.6028 18.144 61.6908 17.816 61.0508 17.16C60.4108 16.504 60.0908 15.352 60.0908 13.704V11.184C60.0908 10.464 60.0108 9.95999 59.8508 9.67199C59.6908 9.38399 59.2668 9.21599 58.5788 9.16799C58.5788 8.89599 58.5947 8.62399 58.6268 8.35199C58.6588 8.06399 58.7388 7.80799 58.8668 7.58399C59.8748 7.58399 60.7708 7.50399 61.5548 7.34399C62.3388 7.16799 62.9228 6.98399 63.3068 6.79199C63.5308 6.88799 63.7068 7.04799 63.8348 7.27199C63.9788 7.49599 64.0508 7.80799 64.0508 8.20799V13.104C64.0508 14.176 64.1468 14.92 64.3388 15.336C64.5468 15.736 64.8748 15.936 65.3228 15.936C65.8988 15.936 66.4028 15.632 66.8348 15.024C67.2828 14.416 67.5068 13.48 67.5068 12.216V11.064C67.5068 10.344 67.4028 9.83999 67.1948 9.55199C66.9868 9.26399 66.5148 9.09599 65.7788 9.04799C65.7788 8.77599 65.7948 8.50399 65.8268 8.23199C65.8587 7.94399 65.9308 7.68799 66.0428 7.46399C67.0988 7.46399 68.0428 7.39999 68.8748 7.27199C69.7228 7.14399 70.3307 6.98399 70.6988 6.79199C70.9388 6.88799 71.1228 7.04799 71.2508 7.27199C71.3788 7.49599 71.4427 7.80799 71.4427 8.20799V13.656C71.4427 14.232 71.4747 14.664 71.5387 14.952C71.6028 15.24 71.7308 15.44 71.9228 15.552C72.1308 15.648 72.4348 15.704 72.8348 15.72C72.8828 16.024 72.8828 16.32 72.8348 16.608C72.8028 16.896 72.7228 17.168 72.5948 17.424C71.9388 17.44 71.2668 17.512 70.5788 17.64C69.9068 17.768 69.2748 17.96 68.6828 18.216C68.3788 18.104 68.1628 17.944 68.0348 17.736C67.9068 17.528 67.8428 17.232 67.8428 16.848C67.8428 16.528 67.8908 16.144 67.9868 15.696C67.7788 16.272 67.4908 16.728 67.1228 17.064C66.7868 17.384 66.3388 17.648 65.7788 17.856C65.2188 18.048 64.5548 18.144 63.7868 18.144ZM68.7068 5.68799C67.9868 5.68799 67.4427 5.51199 67.0748 5.15999C66.7228 4.79199 66.5468 4.31999 66.5468 3.74399C66.5468 3.18399 66.7388 2.75199 67.1228 2.44799C67.5068 2.14399 68.0028 1.99199 68.6108 1.99199C69.2028 1.99199 69.6908 2.15999 70.0748 2.49599C70.4748 2.83199 70.6748 3.24799 70.6748 3.74399C70.6748 4.23999 70.5228 4.68799 70.2188 5.08799C69.9307 5.48799 69.4268 5.68799 68.7068 5.68799ZM62.9228 5.68799C62.2988 5.68799 61.7948 5.51999 61.4108 5.18399C61.0268 4.84799 60.8348 4.43999 60.8348 3.95999C60.8348 3.44799 60.9948 2.99199 61.3148 2.59199C61.6348 2.19199 62.1468 1.99199 62.8508 1.99199C63.5868 1.99199 64.1148 2.17599 64.4348 2.54399C64.7708 2.91199 64.9388 3.36799 64.9388 3.91199C64.9388 4.40799 64.7468 4.83199 64.3628 5.18399C63.9788 5.51999 63.4988 5.68799 62.9228 5.68799Z" fill="black"/>
<path d="M74.1279 18.072C74.1279 17.768 74.1439 17.48 74.1759 17.208C74.2079 16.92 74.2639 16.664 74.3439 16.44C74.9839 16.392 75.3999 16.232 75.5919 15.96C75.7999 15.672 75.9039 15.128 75.9039 14.328V11.448C75.9039 10.872 75.8719 10.424 75.8079 10.104C75.7439 9.78399 75.5839 9.55999 75.3279 9.43199C75.0879 9.28799 74.7039 9.19999 74.1759 9.16799C74.1759 8.89599 74.1919 8.63199 74.2239 8.37599C74.2719 8.10399 74.3519 7.83999 74.4639 7.58399C75.0239 7.58399 75.5999 7.55199 76.1919 7.48799C76.7999 7.40799 77.3599 7.31199 77.8719 7.19999C78.3839 7.07199 78.7919 6.93599 79.0959 6.79199C79.2879 6.85599 79.4559 6.99999 79.5999 7.22399C79.7439 7.44799 79.8159 7.76799 79.8159 8.18399C79.8159 8.39199 79.7999 8.60799 79.7679 8.83199C79.7359 9.05599 79.6719 9.35199 79.5759 9.71999C79.7519 9.30399 79.8959 8.99199 80.0079 8.78399C80.1359 8.55999 80.2639 8.39199 80.3919 8.27999C80.7439 7.87999 81.1999 7.53599 81.7599 7.24799C82.3359 6.95999 82.9759 6.81599 83.6799 6.81599C84.4479 6.81599 85.1279 6.98399 85.7199 7.31999C86.3279 7.63999 86.7919 8.10399 87.1119 8.71199C87.2719 8.99999 87.3759 9.28799 87.4239 9.57599C87.6799 8.96799 87.9599 8.51999 88.2639 8.23199C88.5999 7.87999 89.0239 7.58399 89.5359 7.34399C90.0639 7.08799 90.6559 6.95999 91.3119 6.95999C92.5599 6.95999 93.5279 7.27999 94.2159 7.91999C94.9199 8.55999 95.2719 9.62399 95.2719 11.112V13.464C95.2719 14.328 95.2959 14.968 95.3439 15.384C95.3919 15.784 95.4959 16.048 95.6559 16.176C95.8319 16.304 96.0879 16.384 96.4239 16.416C96.5039 16.656 96.5519 16.92 96.5679 17.208C96.5999 17.48 96.6159 17.768 96.6159 18.072C96.1999 18.04 95.7119 18.016 95.1519 18C94.6079 18 94.0399 18 93.4479 18C92.8719 18 92.2319 18 91.5279 18C90.8239 18.016 90.2639 18.04 89.8479 18.072C89.8479 17.416 89.9039 16.864 90.0159 16.416C90.3359 16.4 90.5839 16.32 90.7599 16.176C90.9519 16.016 91.0879 15.744 91.1679 15.36C91.2639 14.976 91.3119 14.408 91.3119 13.656V11.904C91.3119 10.912 91.1759 10.248 90.9039 9.91199C90.6319 9.55999 90.2719 9.38399 89.8239 9.38399C89.1359 9.38399 88.5839 9.71199 88.1679 10.368C87.7679 11.024 87.5679 11.96 87.5679 13.176V14.208C87.5679 15.04 87.6559 15.608 87.8319 15.912C88.0079 16.216 88.3599 16.384 88.8879 16.416C88.9519 16.624 88.9999 16.88 89.0319 17.184C89.0639 17.472 89.0799 17.768 89.0799 18.072C88.7119 18.04 88.1999 18.016 87.5439 18C86.9039 18 86.2719 18 85.6479 18C85.0079 18 84.3599 18 83.7039 18C83.0639 18.016 82.5279 18.04 82.0959 18.072C82.0959 17.768 82.1119 17.472 82.1439 17.184C82.1919 16.88 82.2479 16.624 82.3119 16.416C82.6639 16.384 82.9359 16.304 83.1279 16.176C83.3199 16.032 83.4559 15.76 83.5359 15.36C83.6159 14.944 83.6559 14.312 83.6559 13.464V11.688C83.6559 10.808 83.5199 10.2 83.2479 9.86399C82.9759 9.51199 82.5679 9.33599 82.0239 9.33599C81.4159 9.33599 80.8959 9.68799 80.4639 10.392C80.0479 11.096 79.8399 12.008 79.8399 13.128V14.208C79.8399 15.072 79.9279 15.648 80.1039 15.936C80.2799 16.224 80.6239 16.384 81.1359 16.416C81.2159 16.64 81.2719 16.896 81.3039 17.184C81.3359 17.472 81.3519 17.768 81.3519 18.072C81.0959 18.056 80.7439 18.04 80.2959 18.024C79.8639 18.008 79.4079 18 78.9279 18C78.4639 18 78.0479 18 77.6799 18C77.2959 18 76.8719 18 76.4079 18C75.9599 18 75.5279 18.008 75.1119 18.024C74.6959 18.04 74.3679 18.056 74.1279 18.072Z" fill="black"/>
<path d="M106.335 18.216C106.031 18.104 105.815 17.936 105.687 17.712C105.559 17.488 105.495 17.192 105.495 16.824C105.495 16.52 105.543 16.176 105.639 15.792C105.351 16.432 104.983 16.936 104.535 17.304C103.831 17.88 102.871 18.168 101.655 18.168C100.551 18.168 99.6868 17.936 99.0628 17.472C98.4388 16.992 98.1268 16.312 98.1268 15.432C98.1268 14.664 98.3428 14.032 98.7748 13.536C99.2068 13.024 99.7668 12.616 100.455 12.312C101.159 12.008 101.919 11.776 102.735 11.616C103.551 11.44 104.343 11.296 105.111 11.184C105.111 10.608 105.079 10.136 105.015 9.76799C104.951 9.39999 104.807 9.09599 104.583 8.85599C104.391 8.64799 104.183 8.50399 103.959 8.42399C103.735 8.34399 103.511 8.30399 103.287 8.30399C102.679 8.30399 102.239 8.56799 101.967 9.09599C101.695 9.62399 101.527 10.248 101.463 10.968C100.999 10.968 100.583 10.952 100.215 10.92C99.8468 10.888 99.5108 10.808 99.2068 10.68C99.2388 10.248 99.2468 9.78399 99.2308 9.28799C99.2148 8.79199 99.1508 8.26399 99.0388 7.70399C99.7268 7.41599 100.535 7.19199 101.463 7.03199C102.391 6.85599 103.279 6.76799 104.127 6.76799C105.183 6.76799 106.015 6.88799 106.623 7.12799C107.231 7.35199 107.687 7.61599 107.991 7.91999C108.311 8.23999 108.567 8.69599 108.759 9.28799C108.967 9.86399 109.071 10.72 109.071 11.856V13.704C109.071 14.264 109.103 14.688 109.167 14.976C109.231 15.248 109.359 15.44 109.551 15.552C109.759 15.648 110.055 15.704 110.439 15.72C110.487 16.024 110.495 16.32 110.463 16.608C110.431 16.896 110.351 17.168 110.223 17.424C109.567 17.44 108.903 17.512 108.231 17.64C107.559 17.768 106.927 17.96 106.335 18.216ZM103.071 15.888C103.535 15.888 103.991 15.664 104.439 15.216C104.887 14.752 105.111 14.056 105.111 13.128V12.576C104.087 12.768 103.319 13.024 102.807 13.344C102.295 13.664 102.039 14.12 102.039 14.712C102.039 15.128 102.135 15.432 102.327 15.624C102.535 15.8 102.783 15.888 103.071 15.888Z" fill="black"/>
<path d="M125.329 14.328C125.329 15.128 125.409 15.68 125.569 15.984C125.729 16.272 126.025 16.416 126.457 16.416C126.537 16.656 126.593 16.904 126.625 17.16C126.657 17.416 126.673 17.72 126.673 18.072C126.321 18.056 125.841 18.04 125.233 18.024C124.641 18.008 124.073 18 123.529 18C123.161 18 122.737 18 122.257 18C121.793 18.016 121.337 18.024 120.889 18.024C120.457 18.04 120.121 18.056 119.881 18.072C119.881 17.768 119.889 17.48 119.905 17.208C119.937 16.92 120.001 16.656 120.097 16.416C120.497 16.416 120.809 16.256 121.033 15.936C121.257 15.6 121.369 15 121.369 14.136V11.976C121.369 11 121.225 10.328 120.937 9.95999C120.649 9.57599 120.233 9.38399 119.689 9.38399C119.097 9.38399 118.585 9.71999 118.153 10.392C117.721 11.064 117.505 11.992 117.505 13.176V14.328C117.505 15.16 117.609 15.72 117.817 16.008C118.025 16.28 118.337 16.416 118.753 16.416C118.865 16.672 118.929 16.936 118.945 17.208C118.977 17.464 118.993 17.752 118.993 18.072C118.753 18.056 118.433 18.04 118.033 18.024C117.633 18.024 117.209 18.016 116.761 18C116.313 18 115.905 18 115.537 18C115.153 18 114.713 18 114.217 18C113.721 18.016 113.249 18.024 112.801 18.024C112.353 18.04 112.009 18.056 111.769 18.072C111.769 17.736 111.785 17.424 111.817 17.136C111.849 16.848 111.905 16.608 111.985 16.416C112.609 16.416 113.025 16.272 113.233 15.984C113.441 15.68 113.545 15.128 113.545 14.328V11.184C113.545 10.704 113.505 10.328 113.425 10.056C113.361 9.76799 113.209 9.55999 112.969 9.43199C112.729 9.28799 112.345 9.19999 111.817 9.16799C111.817 8.89599 111.833 8.62399 111.865 8.35199C111.913 8.06399 111.993 7.80799 112.105 7.58399C113.113 7.58399 114.041 7.50399 114.889 7.34399C115.753 7.16799 116.377 6.98399 116.761 6.79199C116.985 6.88799 117.161 7.04799 117.289 7.27199C117.433 7.49599 117.505 7.80799 117.505 8.20799C117.505 8.59199 117.417 9.07199 117.241 9.64799C117.353 9.40799 117.465 9.17599 117.577 8.95199C117.689 8.71199 117.841 8.49599 118.033 8.30399C118.385 7.91999 118.841 7.59199 119.401 7.31999C119.977 7.04799 120.617 6.91199 121.321 6.91199C122.025 6.91199 122.673 7.04799 123.265 7.31999C123.873 7.57599 124.369 7.99199 124.753 8.56799C125.137 9.12799 125.329 9.87999 125.329 10.824V14.328Z" fill="black"/>
</svg>
