<svg width="25" height="25" viewBox="0 0 25 25" fill="none" xmlns="http://www.w3.org/2000/svg">
<path d="M7.2915 18.75V17.7083C7.2915 16.327 7.84024 15.0022 8.81699 14.0255C9.79374 13.0487 11.1185 12.5 12.4998 12.5C13.8812 12.5 15.2059 13.0487 16.1827 14.0255C17.1594 15.0022 17.7082 16.327 17.7082 17.7083V18.75" stroke="#443937" stroke-linecap="round"/>
<path d="M12.5 12.5C13.3288 12.5 14.1237 12.1708 14.7097 11.5847C15.2958 10.9987 15.625 10.2038 15.625 9.375C15.625 8.5462 15.2958 7.75134 14.7097 7.16529C14.1237 6.57924 13.3288 6.25 12.5 6.25C11.6712 6.25 10.8763 6.57924 10.2903 7.16529C9.70424 7.75134 9.375 8.5462 9.375 9.375C9.375 10.2038 9.70424 10.9987 10.2903 11.5847C10.8763 12.1708 11.6712 12.5 12.5 12.5V12.5Z" stroke="#443937" stroke-linecap="round" stroke-linejoin="round"/>
<path d="M12.4999 22.9168C18.2529 22.9168 22.9166 18.2531 22.9166 12.5002C22.9166 6.7472 18.2529 2.0835 12.4999 2.0835C6.74695 2.0835 2.08325 6.7472 2.08325 12.5002C2.08325 18.2531 6.74695 22.9168 12.4999 22.9168Z" stroke="#443937"/>
</svg>
