<svg width="25" height="25" viewBox="0 0 25 25" fill="none" xmlns="http://www.w3.org/2000/svg">
<path d="M16.1459 16.146L19.7917 19.7918" stroke="#443937" stroke-linecap="round" stroke-linejoin="round"/>
<path d="M5.20837 11.4585C5.20837 12.2793 5.37003 13.092 5.68413 13.8503C5.99822 14.6086 6.45859 15.2975 7.03896 15.8779C7.61932 16.4583 8.30832 16.9187 9.0666 17.2327C9.82489 17.5468 10.6376 17.7085 11.4584 17.7085C12.2791 17.7085 13.0919 17.5468 13.8501 17.2327C14.6084 16.9187 15.2974 16.4583 15.8778 15.8779C16.4582 15.2975 16.9185 14.6086 17.2326 13.8503C17.5467 13.092 17.7084 12.2793 17.7084 11.4585C17.7084 9.80089 17.0499 8.21118 15.8778 7.03908C14.7057 5.86698 13.116 5.2085 11.4584 5.2085C9.80077 5.2085 8.21106 5.86698 7.03896 7.03908C5.86685 8.21118 5.20837 9.80089 5.20837 11.4585V11.4585Z" stroke="#443937" stroke-linecap="round" stroke-linejoin="round"/>
</svg>
