<svg width="25" height="25" viewBox="0 0 25 25" fill="none" xmlns="http://www.w3.org/2000/svg">
<path d="M23.9584 3.13547C23.9584 3.13547 21.8563 4.37714 20.6875 4.72922C20.0602 4.00788 19.2264 3.49661 18.299 3.26456C17.3716 3.03252 16.3953 3.09089 15.5022 3.43178C14.609 3.77267 13.8421 4.37964 13.3052 5.1706C12.7683 5.96155 12.4872 6.89832 12.5 7.85422V8.89589C10.6694 8.94336 8.85551 8.53736 7.21982 7.71406C5.58413 6.89077 4.17743 5.67572 3.12502 4.17714C3.12502 4.17714 -1.04165 13.5521 8.33335 17.7188C6.18807 19.175 3.63248 19.9052 1.04169 19.8021C10.4167 25.0105 21.875 19.8021 21.875 7.82297C21.875 7.53339 21.8459 7.24381 21.7917 6.95839C22.8542 5.91047 23.9584 3.13547 23.9584 3.13547Z" stroke="black" stroke-linecap="round" stroke-linejoin="round"/>
</svg>
