<svg width="25" height="25" viewBox="0 0 25 25" fill="none" xmlns="http://www.w3.org/2000/svg">
<g clip-path="url(#clip0_1_339)">
<path d="M12.5 25C19.4036 25 25 19.4036 25 12.5C25 5.59644 19.4036 3.39263e-06 12.5 2.18557e-06C5.59644 9.78513e-07 -9.78512e-07 5.59644 -2.18557e-06 12.5C-3.39262e-06 19.4036 5.59644 25 12.5 25Z" fill="#F0F0F0"/>
<path d="M2.58397 4.88965C1.60209 6.16714 0.861706 7.63955 0.430602 9.23911L6.93343 9.23911L2.58397 4.88965Z" fill="#0052B4"/>
<path d="M24.5694 9.23906C24.1383 7.63955 23.3979 6.16714 22.416 4.88965L18.0666 9.23906L24.5694 9.23906Z" fill="#0052B4"/>
<path d="M0.430603 15.7607C0.861755 17.3603 1.60214 18.8327 2.58397 20.1101L6.93329 15.7607L0.430603 15.7607Z" fill="#0052B4"/>
<path d="M20.1102 2.58408C18.8328 1.6022 17.3604 0.861817 15.7608 0.430664L15.7608 6.93345L20.1102 2.58408Z" fill="#0052B4"/>
<path d="M4.88974 22.4162C6.16723 23.3981 7.63964 24.1385 9.23915 24.5696L9.23915 18.0669L4.88974 22.4162Z" fill="#0052B4"/>
<path d="M9.2391 0.430665C7.63959 0.861817 6.16718 1.6022 4.88974 2.58403L9.2391 6.9334L9.2391 0.430665Z" fill="#0052B4"/>
<path d="M15.7609 24.5696C17.3604 24.1385 18.8328 23.3981 20.1102 22.4163L15.7609 18.0669L15.7609 24.5696Z" fill="#0052B4"/>
<path d="M18.0667 15.7612L22.416 20.1106C23.3979 18.8332 24.1383 17.3607 24.5694 15.7612L18.0667 15.7612Z" fill="#0052B4"/>
<path d="M24.8942 10.8696L14.1305 10.8696L14.1305 10.8696L14.1305 0.105813C13.5967 0.0363305 13.0526 2.28219e-06 12.5 2.18557e-06C11.9473 2.08894e-06 11.4033 0.0363301 10.8696 0.105812L10.8696 10.8695L10.8696 10.8695L0.105809 10.8695C0.0363261 11.4033 -2.08895e-06 11.9474 -2.18557e-06 12.5C-2.2822e-06 13.0527 0.0363258 13.5967 0.105808 14.1304L10.8695 14.1304L10.8695 14.1304L10.8695 24.8942C11.4033 24.9637 11.9473 25 12.5 25C13.0526 25 13.5967 24.9637 14.1304 24.8942L14.1304 14.1305L14.1304 14.1305L24.8942 14.1305C24.9637 13.5967 25 13.0527 25 12.5C25 11.9474 24.9637 11.4033 24.8942 10.8696Z" fill="#D80027"/>
<path d="M15.7609 15.7608L21.3388 21.3387C21.5954 21.0823 21.8401 20.8142 22.0736 20.5362L17.2981 15.7607L15.7609 15.7607L15.7609 15.7608Z" fill="#D80027"/>
<path d="M9.23911 15.7607L9.23901 15.7607L3.66113 21.3386C3.91758 21.5952 4.18569 21.8399 4.46362 22.0734L9.23911 17.2978L9.23911 15.7607Z" fill="#D80027"/>
<path d="M9.23912 9.23921L9.23912 9.23911L3.66119 3.66113C3.40464 3.91758 3.15992 4.18569 2.92642 4.46362L7.70196 9.23916L9.23912 9.23916L9.23912 9.23921Z" fill="#D80027"/>
<path d="M15.7609 9.23901L21.3389 3.66099C21.0824 3.40444 20.8143 3.15972 20.5364 2.92627L15.7609 7.70181L15.7609 9.23901Z" fill="#D80027"/>
</g>
<defs>
<clipPath id="clip0_1_339">
<rect width="25" height="25" fill="white"/>
</clipPath>
</defs>
</svg>
